<?xml version="1.0" encoding="utf-8"?>
<!-- Generator: Adobe Illustrator 27.5.0, SVG Export Plug-In . SVG Version: 6.00 Build 0)  -->
<svg version="1.1" xmlns="http://www.w3.org/2000/svg" xmlns:xlink="http://www.w3.org/1999/xlink" x="0px" y="0px"
	 viewBox="0 0 500 500" style="enable-background:new 0 0 500 500;" xml:space="preserve">
<g id="BACKGROUND">
	<rect style="fill:#FFFFFF;" width="500" height="500"/>
</g>
<g id="OBJECTS">
	<g>
		<path style="fill:#AFD4CC;" d="M226.635,78.023c-60.122,0-140.568,12.823-158.448,81.059
			c-26.642,101.675-42.446,217.941,39.205,265.574c28.788,16.795,58.652,11.742,79.604,6.811
			c51.835-12.196,95.548,4.767,133.656-4.065c31.22-7.235,158.045-64.364,107.227-223.016
			C377.06,45.736,282.539,78.023,226.635,78.023z"/>
		<g>
			<g>
				<path style="fill:#EBE1D4;" d="M114.966,209.9c3.868-3.869,13.617-7.917,19.795-14.096c8.875-8.874,15.307-5.362,22.76-5.362
					c0-11.032,17.618-33.354,49.464-19.822c12.545-12.545,41.555,3.091,47.731,36.527c-41.633,4.786-59.25,2.753-75.85,2.753
					C162.264,209.9,132.038,213.966,114.966,209.9z"/>
				<path style="fill:#D4CBBF;" d="M246.807,208.005c-15.989-13.892-35.6-21.287-40.962-15.925
					c-5.889,5.889-18.849,7.996-26.979,5.256c-8.131-2.741-21.683,3.078-28.319,6.128c-5.964,2.739-16.629,5.479-24.325,7.972
					c17.058,1.1,39.272-1.535,52.645-1.535C194.373,209.9,210.776,211.673,246.807,208.005z"/>
			</g>
			<g>
				<path style="fill:#EBE1D4;" d="M169.326,150.695c-13.423-6.859-20.031-11.095-25.282-16.345
					c-5.251-5.251-8.469-19.252-32.185-19.252c-0.581-4.294-4.456-7.089-7.676-7.673c-11.963,7.952-27.039,23.029-33.93,44.813
					c23.039,0,16.407,1.927,37.138-1.543C128.121,147.224,149.548,155.52,169.326,150.695z"/>
				<path style="fill:#D4CBBF;" d="M119.409,139.21c-12.451-8.945-17.024-10.365-28.713-8.841c-3.63,0.474-6.845,0.767-10.144,0.691
					c-4.156,6.151-7.777,13.212-10.299,21.178c23.039,0,16.407,1.927,37.138-1.543c17.333-2.902,35.153,2.417,52.091,1.419
					C147.47,146.884,130.511,147.189,119.409,139.21z"/>
			</g>
		</g>
		<g>
			<g>
				<path style="fill:#CC8E2D;" d="M142.054,100.804c16.262-9.485,50.141-29.136,139.584-17.956
					c65.048,31.508,118.236,60.982,143.646,86.392c21.683,42.686,33.88,56.916,33.88,99.604c-5.422-5.42-12.705-5.336-22.869-5.336
					c-12.958-5.082-31.761-11.942-56.153-3.557c-17.405-17.405-33.286-38.368-84.613-40.909
					c-16.262-16.262-34.048-34.557-63.018-34.557c-5.59-12.196-16.262-37.605-56.916-46.245
					C175.594,124.011,153.742,100.804,142.054,100.804z"/>
				<g>
					<path style="fill:#E7A133;" d="M175.594,139.256c-0.339,0-0.67-0.169-0.863-0.478c-0.296-0.477-0.151-1.104,0.324-1.4
						c0.469-0.293,47.377-29.423,92.234-42.71c0.54-0.16,1.103,0.148,1.265,0.686c0.158,0.539-0.149,1.104-0.688,1.264
						c-44.594,13.21-91.268,42.193-91.734,42.485C175.965,139.206,175.779,139.256,175.594,139.256z"/>
					<path style="fill:#E7A133;" d="M380.142,260.966c-0.07,0-0.144-0.007-0.215-0.022c-0.55-0.118-0.898-0.659-0.78-1.208
						c0.125-0.576,12.33-58.081,5.326-102.06c-0.087-0.555,0.29-1.076,0.844-1.164c0.565-0.09,1.076,0.291,1.163,0.845
						c7.064,44.359-5.221,102.229-5.346,102.808C381.03,260.641,380.609,260.966,380.142,260.966z"/>
					<path style="fill:#E7A133;" d="M232.509,185.501c-0.222,0-0.443-0.071-0.63-0.22c-0.44-0.348-0.515-0.986-0.167-1.427
						c0.398-0.504,40.255-50.539,80.656-69.818c0.506-0.242,1.113-0.026,1.355,0.479c0.242,0.507,0.026,1.113-0.479,1.355
						c-39.971,19.074-79.542,68.744-79.938,69.243C233.106,185.369,232.809,185.501,232.509,185.501z"/>
					<path style="fill:#E7A133;" d="M436.295,264.523c-0.562,0-1.016-0.455-1.016-1.017c0-0.45-0.071-45.314-6.057-65.392
						c-0.161-0.538,0.145-1.104,0.683-1.265c0.546-0.161,1.105,0.145,1.265,0.684c6.072,20.362,6.142,64.12,6.142,65.973
						C437.311,264.068,436.857,264.523,436.295,264.523z"/>
				</g>
			</g>
			<g>
				<g>
					<g>
						<path style="fill:#574599;" d="M248.234,214.093c-8.449,8.448-20.582,8.004-15.246,16.135
							c-13.213,2.032-11.774,5.082-25.325,7.114c-13.551,2.033-63.692,2.033-94.522,4.743c-7.792,7.792-16.961,30.491-9.666,43.026
							c7.295,12.535,13.731,0,21.863,0c8.131,0,18.294,3.049,35.572,3.049c17.278,0,33.539,0.679,46.075,5.082
							c0,23.377-11.349,78.261-19.988,138.226c20.836-4.065,45.482-6.607,67.719-3.557c22.233,3.049,50.183,2.541,65.936-0.509
							c0-18.294-5.082-47.261-5.082-77.243c9.656-2.541,26.934-10.502,26.934-32.862c0-22.36-0.339-74.195-17.617-84.021
							c-17.278-9.824-23.716-9.485-27.103-12.873c3.049-8.809,7.825-17.917,0.016-20.985
							C289.314,199.418,258.269,207.373,248.234,214.093z"/>
						<g>
							<defs>
								<path id="SVGID_1_" d="M248.234,214.093c-8.449,8.448-20.582,8.004-15.246,16.135c-13.213,2.032-11.774,5.082-25.325,7.114
									c-13.551,2.033-63.692,2.033-94.522,4.743c-7.792,7.792-16.961,30.491-9.666,43.026c7.295,12.535,13.731,0,21.863,0
									c8.131,0,18.294,3.049,35.572,3.049c17.278,0,33.539,0.679,46.075,5.082c0,23.377-11.349,78.261-19.988,138.226
									c20.836-4.065,45.482-6.607,67.719-3.557c22.233,3.049,50.183,2.541,65.936-0.509c0-18.294-5.082-47.261-5.082-77.243
									c9.656-2.541,26.934-10.502,26.934-32.862c0-22.36-0.339-74.195-17.617-84.021c-17.278-9.824-23.716-9.485-27.103-12.873
									c3.049-8.809,7.825-17.917,0.016-20.985C289.314,199.418,258.269,207.373,248.234,214.093z"/>
							</defs>
							<clipPath id="SVGID_00000049182091878231233220000008204987527143211938_">
								<use xlink:href="#SVGID_1_"  style="overflow:visible;"/>
							</clipPath>
							<g style="clip-path:url(#SVGID_00000049182091878231233220000008204987527143211938_);">
								<path style="fill:#6756AB;" d="M345.734,209.573c-0.042,0-0.085-0.005-0.127-0.014l-35.685-7.54l-35.684,7.54
									c-0.083,0.018-0.169,0.018-0.252,0l-35.684-7.54l-35.68,7.54c-0.083,0.018-0.169,0.018-0.252,0l-35.68-7.54l-35.678,7.54
									c-0.083,0.018-0.169,0.018-0.252,0l-35.8-7.567c-0.33-0.069-0.54-0.393-0.471-0.723c0.07-0.328,0.392-0.537,0.723-0.47
									l35.674,7.54l35.678-7.54c0.084-0.019,0.169-0.019,0.253,0l35.679,7.54l35.68-7.54c0.083-0.019,0.169-0.019,0.252,0
									l35.684,7.54l35.684-7.54c0.084-0.019,0.169-0.019,0.252,0l35.811,7.566c0.329,0.07,0.54,0.394,0.471,0.723
									C346.269,209.376,346.016,209.573,345.734,209.573z"/>
								<path style="fill:#6756AB;" d="M345.734,222.565c-0.042,0-0.085-0.004-0.127-0.014l-35.685-7.54l-35.684,7.54
									c-0.083,0.018-0.169,0.018-0.252,0l-35.684-7.54l-35.68,7.54c-0.083,0.018-0.169,0.018-0.252,0l-35.68-7.54l-35.678,7.54
									c-0.083,0.018-0.169,0.018-0.252,0l-35.8-7.566c-0.33-0.07-0.54-0.394-0.471-0.723c0.07-0.329,0.392-0.541,0.723-0.471
									l35.674,7.54l35.678-7.54c0.084-0.018,0.169-0.018,0.253,0l35.679,7.54l35.68-7.54c0.083-0.018,0.169-0.018,0.252,0
									l35.684,7.54l35.684-7.54c0.084-0.018,0.169-0.018,0.252,0l35.811,7.567c0.329,0.069,0.54,0.393,0.471,0.723
									C346.269,222.368,346.016,222.565,345.734,222.565z"/>
								<path style="fill:#6756AB;" d="M345.734,235.558c-0.042,0-0.085-0.004-0.127-0.013l-35.685-7.541l-35.684,7.541
									c-0.083,0.018-0.169,0.018-0.252,0l-35.684-7.541l-35.68,7.541c-0.083,0.018-0.169,0.018-0.252,0l-35.68-7.541
									l-35.678,7.541c-0.083,0.018-0.169,0.018-0.252,0l-35.8-7.567c-0.33-0.069-0.54-0.393-0.471-0.723
									c0.07-0.329,0.392-0.539,0.723-0.471l35.674,7.541l35.678-7.541c0.084-0.018,0.169-0.018,0.253,0l35.679,7.541l35.68-7.541
									c0.083-0.018,0.169-0.018,0.252,0l35.684,7.541l35.684-7.541c0.084-0.018,0.169-0.018,0.252,0l35.811,7.567
									c0.329,0.069,0.54,0.393,0.471,0.723C346.269,235.361,346.016,235.558,345.734,235.558z"/>
								<path style="fill:#6756AB;" d="M345.734,248.55c-0.042,0-0.085-0.005-0.127-0.014l-35.685-7.54l-35.684,7.54
									c-0.083,0.018-0.169,0.018-0.252,0l-35.684-7.54l-35.68,7.54c-0.083,0.018-0.169,0.018-0.252,0l-35.68-7.54l-35.678,7.54
									c-0.083,0.018-0.169,0.018-0.252,0l-35.8-7.567c-0.33-0.069-0.54-0.393-0.471-0.723c0.07-0.329,0.392-0.537,0.723-0.471
									l35.674,7.541l35.678-7.541c0.084-0.018,0.169-0.018,0.253,0l35.679,7.541l35.68-7.541c0.083-0.018,0.169-0.018,0.252,0
									l35.684,7.541l35.684-7.541c0.084-0.018,0.169-0.018,0.252,0l35.811,7.567c0.329,0.069,0.54,0.393,0.471,0.723
									C346.269,248.352,346.016,248.55,345.734,248.55z"/>
								<path style="fill:#6756AB;" d="M345.734,261.543c-0.042,0-0.085-0.006-0.127-0.015l-35.685-7.54l-35.684,7.54
									c-0.083,0.019-0.169,0.019-0.252,0l-35.684-7.54l-35.68,7.54c-0.083,0.019-0.169,0.019-0.252,0l-35.68-7.54l-35.678,7.54
									c-0.083,0.019-0.169,0.019-0.252,0l-35.8-7.566c-0.33-0.07-0.54-0.393-0.471-0.724c0.07-0.329,0.392-0.54,0.723-0.47
									l35.674,7.54l35.678-7.54c0.084-0.019,0.169-0.019,0.253,0l35.679,7.54l35.68-7.54c0.083-0.019,0.169-0.019,0.252,0
									l35.684,7.54l35.684-7.54c0.084-0.019,0.169-0.019,0.252,0l35.811,7.567c0.329,0.069,0.54,0.393,0.471,0.723
									C346.269,261.345,346.016,261.543,345.734,261.543z"/>
								<path style="fill:#6756AB;" d="M345.734,274.535c-0.042,0-0.085-0.005-0.127-0.014l-35.685-7.541l-35.684,7.541
									c-0.083,0.018-0.169,0.018-0.252,0l-35.684-7.541l-35.68,7.541c-0.083,0.018-0.169,0.018-0.252,0l-35.68-7.541
									l-35.678,7.541c-0.083,0.018-0.169,0.018-0.252,0l-35.8-7.567c-0.33-0.069-0.54-0.394-0.471-0.723
									c0.07-0.33,0.392-0.539,0.723-0.471l35.674,7.54l35.678-7.54c0.084-0.018,0.169-0.018,0.253,0l35.679,7.54l35.68-7.54
									c0.083-0.018,0.169-0.018,0.252,0l35.684,7.54l35.684-7.54c0.084-0.018,0.169-0.018,0.252,0l35.811,7.567
									c0.329,0.069,0.54,0.393,0.471,0.723C346.269,274.338,346.016,274.535,345.734,274.535z"/>
								<path style="fill:#6756AB;" d="M345.734,287.526c-0.042,0-0.085-0.005-0.127-0.014l-35.685-7.541l-35.684,7.541
									c-0.083,0.018-0.169,0.018-0.252,0l-35.684-7.541l-35.68,7.541c-0.083,0.018-0.169,0.018-0.252,0l-35.68-7.541
									l-35.678,7.541c-0.083,0.018-0.169,0.018-0.252,0l-35.8-7.567c-0.33-0.069-0.54-0.394-0.471-0.723
									c0.07-0.328,0.392-0.537,0.723-0.471l35.674,7.541l35.678-7.541c0.084-0.018,0.169-0.018,0.253,0l35.679,7.541l35.68-7.541
									c0.083-0.018,0.169-0.018,0.252,0l35.684,7.541l35.684-7.541c0.084-0.018,0.169-0.018,0.252,0l35.811,7.567
									c0.329,0.069,0.54,0.394,0.471,0.723C346.269,287.329,346.016,287.526,345.734,287.526z"/>
								<path style="fill:#6756AB;" d="M345.734,300.519c-0.042,0-0.085-0.005-0.127-0.014l-35.685-7.54l-35.684,7.54
									c-0.083,0.018-0.169,0.018-0.252,0l-35.684-7.54l-35.68,7.54c-0.083,0.018-0.169,0.018-0.252,0l-35.68-7.54l-35.678,7.54
									c-0.083,0.018-0.169,0.018-0.252,0l-35.8-7.567c-0.33-0.069-0.54-0.393-0.471-0.723c0.07-0.329,0.392-0.54,0.723-0.47
									l35.674,7.54l35.678-7.54c0.084-0.018,0.169-0.018,0.253,0l35.679,7.54l35.68-7.54c0.083-0.018,0.169-0.018,0.252,0
									l35.684,7.54l35.684-7.54c0.084-0.018,0.169-0.018,0.252,0l35.811,7.566c0.329,0.069,0.54,0.394,0.471,0.723
									C346.269,300.321,346.016,300.519,345.734,300.519z"/>
								<path style="fill:#6756AB;" d="M345.734,313.51c-0.042,0-0.085-0.005-0.127-0.014l-35.685-7.54l-35.684,7.54
									c-0.083,0.018-0.169,0.018-0.252,0l-35.684-7.54l-35.68,7.54c-0.083,0.018-0.169,0.018-0.252,0l-35.68-7.54l-35.678,7.54
									c-0.083,0.018-0.169,0.018-0.252,0l-35.8-7.567c-0.33-0.069-0.54-0.393-0.471-0.722c0.07-0.33,0.392-0.538,0.723-0.471
									l35.674,7.54l35.678-7.54c0.084-0.018,0.169-0.018,0.253,0l35.679,7.54l35.68-7.54c0.083-0.018,0.169-0.018,0.252,0
									l35.684,7.54l35.684-7.54c0.084-0.018,0.169-0.018,0.252,0l35.811,7.566c0.329,0.07,0.54,0.394,0.471,0.723
									C346.269,313.313,346.016,313.51,345.734,313.51z"/>
								<path style="fill:#6756AB;" d="M345.734,326.503c-0.042,0-0.085-0.005-0.127-0.015l-35.685-7.54l-35.684,7.54
									c-0.083,0.018-0.169,0.018-0.252,0l-35.684-7.54l-35.68,7.54c-0.083,0.018-0.169,0.018-0.252,0l-35.68-7.54l-35.678,7.54
									c-0.083,0.018-0.169,0.018-0.252,0l-35.8-7.566c-0.33-0.07-0.54-0.394-0.471-0.723c0.07-0.329,0.392-0.541,0.723-0.471
									l35.674,7.54l35.678-7.54c0.084-0.018,0.169-0.018,0.253,0l35.679,7.54l35.68-7.54c0.083-0.018,0.169-0.018,0.252,0
									l35.684,7.54l35.684-7.54c0.084-0.018,0.169-0.018,0.252,0l35.811,7.567c0.329,0.069,0.54,0.393,0.471,0.723
									C346.269,326.305,346.016,326.503,345.734,326.503z"/>
								<path style="fill:#6756AB;" d="M345.734,339.495c-0.042,0-0.085-0.005-0.127-0.014l-35.685-7.541l-35.684,7.541
									c-0.083,0.018-0.169,0.018-0.252,0l-35.684-7.541l-35.68,7.541c-0.083,0.018-0.169,0.018-0.252,0l-35.68-7.541
									l-35.678,7.541c-0.083,0.018-0.169,0.018-0.252,0l-35.8-7.567c-0.33-0.069-0.54-0.394-0.471-0.723
									c0.07-0.33,0.392-0.54,0.723-0.471l35.674,7.541l35.678-7.541c0.084-0.018,0.169-0.018,0.253,0l35.679,7.541l35.68-7.541
									c0.083-0.018,0.169-0.018,0.252,0l35.684,7.541l35.684-7.541c0.084-0.018,0.169-0.018,0.252,0l35.811,7.567
									c0.329,0.069,0.54,0.393,0.471,0.723C346.269,339.298,346.016,339.495,345.734,339.495z"/>
								<path style="fill:#6756AB;" d="M345.734,352.486c-0.042,0-0.085-0.005-0.127-0.014l-35.685-7.541l-35.684,7.541
									c-0.083,0.018-0.169,0.018-0.252,0l-35.684-7.541l-35.68,7.541c-0.083,0.018-0.169,0.018-0.252,0l-35.68-7.541
									l-35.678,7.541c-0.083,0.018-0.169,0.018-0.252,0l-35.8-7.567c-0.33-0.069-0.54-0.393-0.471-0.723
									c0.07-0.328,0.392-0.537,0.723-0.471l35.674,7.541l35.678-7.541c0.084-0.018,0.169-0.018,0.253,0l35.679,7.541l35.68-7.541
									c0.083-0.018,0.169-0.018,0.252,0l35.684,7.541l35.684-7.541c0.084-0.018,0.169-0.018,0.252,0l35.811,7.567
									c0.329,0.069,0.54,0.394,0.471,0.723C346.269,352.289,346.016,352.486,345.734,352.486z"/>
								<path style="fill:#6756AB;" d="M345.734,365.478c-0.042,0-0.085-0.005-0.127-0.014l-35.685-7.54l-35.684,7.54
									c-0.083,0.018-0.169,0.018-0.252,0l-35.684-7.54l-35.68,7.54c-0.083,0.018-0.169,0.018-0.252,0l-35.68-7.54l-35.678,7.54
									c-0.083,0.018-0.169,0.018-0.252,0l-35.8-7.567c-0.33-0.069-0.54-0.393-0.471-0.723c0.07-0.329,0.392-0.54,0.723-0.47
									l35.674,7.54l35.678-7.54c0.084-0.019,0.169-0.019,0.253,0l35.679,7.54l35.68-7.54c0.083-0.019,0.169-0.019,0.252,0
									l35.684,7.54l35.684-7.54c0.084-0.019,0.169-0.019,0.252,0l35.811,7.566c0.329,0.07,0.54,0.393,0.471,0.723
									C346.269,365.281,346.016,365.478,345.734,365.478z"/>
								<path style="fill:#6756AB;" d="M345.734,378.471c-0.042,0-0.085-0.006-0.127-0.015l-35.685-7.54l-35.684,7.54
									c-0.083,0.019-0.169,0.019-0.252,0l-35.684-7.54l-35.68,7.54c-0.083,0.019-0.169,0.019-0.252,0l-35.68-7.54l-35.678,7.54
									c-0.083,0.019-0.169,0.019-0.252,0l-35.8-7.567c-0.33-0.069-0.54-0.393-0.471-0.722c0.07-0.33,0.392-0.538,0.723-0.471
									l35.674,7.54l35.678-7.54c0.084-0.018,0.169-0.018,0.253,0l35.679,7.54l35.68-7.54c0.083-0.018,0.169-0.018,0.252,0
									l35.684,7.54l35.684-7.54c0.084-0.018,0.169-0.018,0.252,0l35.811,7.567c0.329,0.069,0.54,0.393,0.471,0.723
									C346.269,378.272,346.016,378.471,345.734,378.471z"/>
								<path style="fill:#6756AB;" d="M345.734,391.463c-0.042,0-0.085-0.005-0.127-0.014l-35.685-7.541l-35.684,7.541
									c-0.083,0.018-0.169,0.018-0.252,0l-35.684-7.541l-35.68,7.541c-0.083,0.018-0.169,0.018-0.252,0l-35.68-7.541
									l-35.678,7.541c-0.083,0.018-0.169,0.018-0.252,0l-35.8-7.567c-0.33-0.069-0.54-0.393-0.471-0.723
									c0.07-0.329,0.392-0.537,0.723-0.471l35.674,7.54l35.678-7.54c0.084-0.018,0.169-0.018,0.253,0l35.679,7.54l35.68-7.54
									c0.083-0.018,0.169-0.018,0.252,0l35.684,7.54l35.684-7.54c0.084-0.018,0.169-0.018,0.252,0l35.811,7.567
									c0.329,0.069,0.54,0.393,0.471,0.723C346.269,391.265,346.016,391.463,345.734,391.463z"/>
								<path style="fill:#6756AB;" d="M345.734,404.455c-0.042,0-0.085-0.005-0.127-0.014l-35.685-7.541l-35.684,7.541
									c-0.083,0.018-0.169,0.018-0.252,0l-35.684-7.541l-35.68,7.541c-0.083,0.018-0.169,0.018-0.252,0l-35.68-7.541
									l-35.678,7.541c-0.083,0.018-0.169,0.018-0.252,0l-35.8-7.567c-0.33-0.069-0.54-0.393-0.471-0.723
									c0.07-0.329,0.392-0.54,0.723-0.471l35.674,7.541l35.678-7.541c0.084-0.018,0.169-0.018,0.253,0l35.679,7.541l35.68-7.541
									c0.083-0.018,0.169-0.018,0.252,0l35.684,7.541l35.684-7.541c0.084-0.018,0.169-0.018,0.252,0l35.811,7.567
									c0.329,0.069,0.54,0.394,0.471,0.723C346.269,404.258,346.016,404.455,345.734,404.455z"/>
								<path style="fill:#6756AB;" d="M345.734,417.446c-0.042,0-0.085-0.005-0.127-0.014l-35.685-7.54l-35.684,7.54
									c-0.083,0.018-0.169,0.018-0.252,0l-35.684-7.54l-35.68,7.54c-0.083,0.018-0.169,0.018-0.252,0l-35.68-7.54l-35.678,7.54
									c-0.083,0.018-0.169,0.018-0.252,0l-35.8-7.567c-0.33-0.069-0.54-0.393-0.471-0.723c0.07-0.328,0.392-0.538,0.723-0.471
									l35.674,7.541l35.678-7.541c0.084-0.018,0.169-0.018,0.253,0l35.679,7.541l35.68-7.541c0.083-0.018,0.169-0.018,0.252,0
									l35.684,7.541l35.684-7.541c0.084-0.018,0.169-0.018,0.252,0l35.811,7.567c0.329,0.069,0.54,0.394,0.471,0.723
									C346.269,417.249,346.016,417.446,345.734,417.446z"/>
								<path style="fill:#6756AB;" d="M345.734,430.439c-0.042,0-0.085-0.005-0.127-0.014l-35.685-7.54l-35.684,7.54
									c-0.083,0.019-0.169,0.019-0.252,0l-35.684-7.54l-35.68,7.54c-0.083,0.019-0.169,0.019-0.252,0l-35.68-7.54l-35.678,7.54
									c-0.083,0.019-0.169,0.019-0.252,0l-35.8-7.567c-0.33-0.069-0.54-0.393-0.471-0.723c0.07-0.328,0.392-0.54,0.723-0.47
									l35.674,7.54l35.678-7.54c0.084-0.018,0.169-0.018,0.253,0l35.679,7.54l35.68-7.54c0.083-0.018,0.169-0.018,0.252,0
									l35.684,7.54l35.684-7.54c0.084-0.018,0.169-0.018,0.252,0l35.811,7.567c0.329,0.069,0.54,0.393,0.471,0.722
									C346.269,430.241,346.016,430.439,345.734,430.439z"/>
							</g>
						</g>
					</g>
					<g style="opacity:0.3;">
						<path d="M206.985,293.242c1.355-15.245,6.776-32.523,4.743-40.654C209.695,244.457,203.257,272.237,206.985,293.242z"/>
						<path d="M113.14,242.085c-6.373,5.865-18.633,31.084-8.622,44.661C115.499,301.639,116.528,254.705,113.14,242.085z"/>
						<path d="M249.769,319.16c4.312,19.311,3.549,44.466-3.314,44.466C239.593,363.626,240.632,343.299,249.769,319.16z"/>
						<path d="M316.137,368.56c-0.346-6.033-0.566-12.195-0.566-18.401c-7.876,2.032-41.925,9.147-60.727,12.704
							c0,7.115,0.254,9.401,5.336,9.401C264.748,372.265,294.791,367.337,316.137,368.56z"/>
					</g>
					<g>
						<path style="fill:#413473;" d="M250.013,269.612c-0.21,0-0.407-0.132-0.482-0.341c-11.893-34.109-16.673-38.484-16.87-38.653
							c-0.21-0.182-0.24-0.5-0.063-0.713c0.178-0.215,0.491-0.246,0.707-0.073c0.201,0.163,5.08,4.387,17.187,39.104
							c0.093,0.266-0.047,0.556-0.313,0.648C250.124,269.603,250.069,269.612,250.013,269.612z"/>
						<path style="fill:#413473;" d="M206.985,293.751c-0.238,0-0.451-0.167-0.498-0.409c-3.98-19.899-27.686-37.796-27.926-37.975
							c-0.226-0.168-0.271-0.486-0.104-0.712c0.169-0.225,0.487-0.271,0.712-0.104c0.242,0.182,24.257,18.308,28.313,38.592
							c0.056,0.274-0.123,0.543-0.399,0.597C207.05,293.748,207.016,293.751,206.985,293.751z"/>
						<path style="fill:#413473;" d="M123.728,282.849c-0.042,0-0.084-0.005-0.127-0.016c-0.272-0.07-0.435-0.347-0.365-0.619
							c5.747-22.465,2.318-37.997,2.283-38.152c-0.062-0.272,0.108-0.546,0.383-0.608c0.269-0.064,0.546,0.108,0.607,0.382
							c0.035,0.157,3.518,15.931-2.289,38.632C124.161,282.695,123.955,282.849,123.728,282.849z"/>
						<path style="fill:#413473;" d="M130.842,282.849c-0.063,0-0.127-0.012-0.189-0.037c-0.261-0.104-0.387-0.399-0.282-0.66
							c7.47-18.651,1.822-37.863,1.765-38.056c-0.082-0.269,0.07-0.552,0.339-0.634c0.27-0.082,0.552,0.07,0.634,0.34
							c0.059,0.195,5.807,19.749-1.794,38.727C131.234,282.728,131.043,282.849,130.842,282.849z"/>
						<path style="fill:#413473;" d="M249.769,319.668c-0.251,0-0.469-0.185-0.503-0.439c-0.04-0.278,0.155-0.535,0.434-0.573
							c0.203-0.027,20.382-2.816,28.638-5.068c0.809-0.221,1.693-0.476,2.645-0.751c8.927-2.577,23.873-6.89,34.63,0.828
							c0.229,0.164,0.28,0.482,0.117,0.709c-0.165,0.229-0.484,0.279-0.709,0.117c-10.359-7.432-25.006-3.204-33.756-0.678
							c-0.957,0.276-1.847,0.533-2.658,0.755c-8.319,2.269-28.563,5.066-28.768,5.095
							C249.815,319.666,249.792,319.668,249.769,319.668z"/>
						<path style="fill:#413473;" d="M297.53,310.297c-0.278,0-0.506-0.224-0.508-0.502c-0.005-0.334-0.232-33.71,11.233-56.42
							c0.127-0.251,0.433-0.351,0.683-0.225c0.25,0.127,0.352,0.433,0.225,0.683c-11.353,22.486-11.129,55.618-11.125,55.95
							c0.002,0.281-0.222,0.511-0.502,0.514C297.534,310.297,297.532,310.297,297.53,310.297z"/>
						<path style="fill:#413473;" d="M265.432,357.951c-0.032,0-0.061-0.003-0.094-0.008c-0.275-0.051-0.458-0.314-0.409-0.592
							c3.329-18.303-1.636-37.869-1.685-38.064c-0.07-0.273,0.093-0.549,0.365-0.62c0.272-0.07,0.548,0.094,0.619,0.365
							c0.05,0.198,5.072,19.974,1.701,38.502C265.886,357.779,265.672,357.951,265.432,357.951z"/>
						<path style="fill:#413473;" d="M247.654,364.186c-0.814,0-1.226-0.052-1.268-0.057c-0.277-0.038-0.472-0.292-0.437-0.569
							c0.037-0.278,0.29-0.478,0.57-0.439c0.025,0.006,2.628,0.32,8.226-0.757c0.279-0.051,0.543,0.127,0.595,0.403
							c0.054,0.275-0.127,0.542-0.402,0.595C251.356,364.051,248.974,364.186,247.654,364.186z"/>
						<path style="fill:#413473;" d="M272.248,357.02c-0.023,0-0.046-0.002-0.069-0.005c-0.278-0.038-0.473-0.294-0.435-0.573
							c2.622-19.11-2.1-37.984-2.148-38.173c-0.069-0.272,0.096-0.548,0.367-0.617c0.274-0.071,0.548,0.095,0.618,0.366
							c0.047,0.19,4.821,19.25,2.169,38.563C272.717,356.835,272.498,357.02,272.248,357.02z"/>
						<path style="fill:#413473;" d="M254.716,269.612c-0.148,0-0.296-0.064-0.397-0.19c-0.174-0.218-0.141-0.537,0.078-0.713
							c27.682-22.297,42.798-48.299,42.947-48.559c0.141-0.245,0.452-0.328,0.692-0.188c0.244,0.14,0.328,0.45,0.189,0.693
							c-0.15,0.262-15.36,26.429-43.191,48.844C254.94,269.575,254.827,269.612,254.716,269.612z"/>
					</g>
				</g>
				<g>
					<g>
						<path style="fill:#333333;" d="M230.701,165.858c-7.114-15.924-6.438-30.152,19.313-31.847
							c17.28-5.081,37.947-4.065,47.432,10.164c9.486,14.23,16.674,39.756,10.163,46.267c-6.511,6.51-20.804,18.242-24.393,21.83
							C274.747,209.9,239.508,182.797,230.701,165.858z"/>
						<g>
							<path style="fill:#666666;" d="M250.862,135.537c-2.503,2.913-4.155,5.99-5.255,9.655
								C245.075,141.449,247.339,137.087,250.862,135.537z"/>
							<path style="fill:#666666;" d="M261.195,170.77c0.177-6.585,5.346-12.254,11.689-13.382c-2.541,1.259-5.094,2.54-6.952,4.77
								C263.81,164.707,262.17,167.585,261.195,170.77z"/>
						</g>
					</g>
					<g>
						<path style="fill:#E08C4C;" d="M245.607,145.192c-8.47,4.742-15.802,15.414-18.784,28.373
							c-8.827,5.59-15.179,11.18-6.032,13.213c0,8.131-0.508,16.262,1.779,21.598c2.286,5.336,9.655,5.59,25.664,9.909
							c5.085,5.082,11.437,14.229,3.305,50.818c6.352-15.5,12.451-41.163,14.992-46.499c7.114-4.573,12.427-6.455,16.685-10.332
							c-3.176-3.177-8.554-4.913-11.603-12.536c4.192-0.635,8.893-2.795,8.893-10.036c0-7.242-7.684-10.672-12.037-3.177
							c-4.732-2.541-8.925-5.971-7.273-15.753C255.224,169.245,243.109,160.268,245.607,145.192z"/>
						<g>
							<path style="fill:#995F33;" d="M222.824,196.941c1.342,0.113,2.858,0.082,4.123-0.432c1.362-0.325,2.418-1.426,3.5-2.236
								C229.394,197.15,225.492,199.008,222.824,196.941z"/>
							<path style="fill:#B36F3C;" d="M231.081,170.77c1.741-1.263,4.592-0.445,5.972,0.977
								C235.089,171.715,233.015,171.111,231.081,170.77z"/>
							<path style="fill:#333333;" d="M233.498,176.148c-0.13,1.02-0.771,1.78-1.433,1.695c-0.661-0.084-1.092-0.979-0.962-2
								c0.131-1.021,0.771-1.778,1.433-1.694C233.198,174.234,233.628,175.129,233.498,176.148z"/>
							<path style="fill:#333333;" d="M231.081,166.566c0,0,3.431-2.021,8.894,1.79c-1.017-3.304-2.287-5.082-4.447-5.082
								C233.369,163.274,231.081,163.506,231.081,166.566z"/>
							<path style="fill:#C77B43;" d="M248.234,218.285c2.558-0.424,5.202-1.377,7.345-2.848c2.341-1.299,3.952-3.525,5.616-5.537
								C259.295,214.898,253.851,219.199,248.234,218.285z"/>
							<path style="fill:#B36F3C;" d="M269.666,190.442c2.721-2.722,6.096-4.087,6.774-1.378c0.677,2.711-2.88,6.74-5.93,6.74
								C270.511,194.146,271.031,191.808,269.666,190.442z"/>
						</g>
					</g>
				</g>
			</g>
			<g>
				<g>
					<polygon style="fill:#E0E0E0;" points="221.134,353.696 217.048,351.288 337.148,148.034 341.234,150.442 					"/>
					<path style="fill:#333333;" d="M217.976,348.343c0,0,2.114,1.245,5.314,3.133c-4.086,6.93-5.597,9.491-8.283,14.049
						c-3.357,5.696-2.552,10.392,7.314,16.209c12.244,7.22,17.874-9.39,20.057-13.092c2.849,1.68,3.133,1.847,4.842,2.855
						c-2.352,3.986-10.242,25.405-28.039,14.909c-14.066-8.293-13.521-17.181-10.328-22.593
						C212.042,358.404,213.163,356.505,217.976,348.343z"/>
				</g>
				<g>
					<path style="fill:#F2A933;" d="M142.054,100.804c17.786-5.76,58.44-21.683,94.014,0c18.298-3.219,66.576,3.388,104.689,52.682
						c24.393,0,68.097,26.934,82.326,62.506c16.262,3.558,32.015,25.41,36.081,52.852c0-35.064,7.672-115.47-86.983-175.577
						C270.945,28.98,154.927,87.93,142.054,100.804z"/>
					<g>
						<path style="fill:#F0C582;" d="M423.083,217.008c-0.007,0-0.015,0-0.021,0c-0.561-0.011-1.006-0.475-0.996-1.035
							c0.01-0.588,0.569-59.412-45.2-116.296c-0.352-0.438-0.282-1.077,0.154-1.43c0.439-0.353,1.078-0.283,1.43,0.155
							c46.254,57.484,45.659,117.015,45.648,117.609C424.087,216.566,423.635,217.008,423.083,217.008z"/>
						<path style="fill:#F0C582;" d="M236.068,101.82c-0.328,0-0.649-0.159-0.845-0.452c-0.313-0.465-0.188-1.097,0.278-1.409
							c0.512-0.342,12.789-8.462,34.924-13.947c20.389-5.054,53.264-8.639,94.106,2.973c0.54,0.154,0.853,0.716,0.699,1.256
							c-0.153,0.54-0.713,0.853-1.255,0.7c-77.24-21.962-126.852,10.379-127.343,10.708
							C236.458,101.765,236.262,101.82,236.068,101.82z"/>
						<path style="fill:#F0C582;" d="M340.755,154.502c-0.15,0-0.306-0.034-0.45-0.107c-0.503-0.25-0.709-0.859-0.459-1.363
							c0.148-0.292,14.781-29.653,31.46-57.905c0.286-0.484,0.907-0.645,1.392-0.359c0.484,0.285,0.643,0.909,0.359,1.393
							c-16.643,28.19-31.245,57.484-31.391,57.777C341.489,154.295,341.13,154.502,340.755,154.502z"/>
					</g>
				</g>
			</g>
			<g>
				<g>
					<path style="fill:#E08C4C;" d="M113.14,242.085c-4.276,0-7.984-2.941-11.161-2.941c-3.175,0-6.438,2.483-10.672,2.483
						c-5.444-5.444-6.653-11.946-9.375-10.736c-2.723,1.209,0,5.595,1.058,9.375c-2.118,0-2.798,0.529-3.78-0.453
						c-2.798-2.797-6.2-11.039-8.62-11.039c-2.42,0-0.151,5.142,1.965,10.889c-3.175-3.177-6.351-8.47-10.132-9.377
						c-3.78-0.907,0.151,6.05,3.025,8.923c-6.957,0-12.25,1.36-9.074,2.722c3.176,1.361,8.469,1.966,13.006,3.78
						c4.537,1.815,4.991,1.664,8.015,2.572c3.025,0.907,5.294,2.872,8.621,2.872c3.326,0,5.594,3.177,10.585,4.387
						c4.99,1.209,10.721,4.382,18.366,4.382C114.805,255.219,114.35,247.227,113.14,242.085z"/>
					<g>
						<path style="fill:#C77B43;" d="M65.448,239.208c0.984,1.118,1.876,2.338,2.79,3.515c0.899,1.191,1.883,2.332,2.688,3.591
							C68.642,244.489,66.478,241.982,65.448,239.208z"/>
						<path style="fill:#C77B43;" d="M72.554,239.662c1.517,2.958,3.058,5.816,4.84,8.62
							C74.896,246.148,73.14,242.895,72.554,239.662z"/>
						<path style="fill:#C77B43;" d="M82.99,240.266c1.14,3.154,2.371,6.103,4.022,9.019
							C84.61,247.005,83.141,243.576,82.99,240.266z"/>
						<path style="fill:#C77B43;" d="M79.209,239.813c1.62,1.602,3.175,3.136,4.972,4.535
							C81.958,243.811,80.035,241.932,79.209,239.813z"/>
					</g>
				</g>
				<path style="fill:#E08C4C;" d="M250.013,320.297c-6.354,0-14.23-1.137-20.837-1.137c-6.607,0-5.945,5.793-7.521,7.368
					c-1.576,1.575-5.332,3.304-5.332,6.607c0,3.303-1.853,7.803,0,9.655c1.852,1.854-6.076,7.496-1.884,11.688
					c6.098,0,15.626-2.668,21.089-8.131c5.464-5.463,8.032-4.323,16.85-6.354C252.104,335.163,252.047,327.024,250.013,320.297z"/>
			</g>
		</g>
		<g>
			<path style="fill:#FFF9F2;" d="M85.338,192.08c6.899,10.943,17.843,30.136,14.75,30.136
				C96.996,222.216,90.095,203.737,85.338,192.08z"/>
			<path style="fill:#FFF9F2;" d="M103.124,137.178c6.899,10.943,17.843,30.137,14.75,30.137
				C114.782,167.314,107.882,148.836,103.124,137.178z"/>
			<path style="fill:#FFF9F2;" d="M156.842,274.485c6.899,10.943,17.843,30.136,14.75,30.136S161.599,286.144,156.842,274.485z"/>
			<path style="fill:#FFF9F2;" d="M84.639,357.197c6.899,10.943,17.844,30.136,14.751,30.136
				C96.297,387.333,89.397,368.855,84.639,357.197z"/>
			<path style="fill:#FFF9F2;" d="M219.245,80.705c6.899,10.943,17.843,30.135,14.75,30.135
				C230.902,110.84,224.001,92.363,219.245,80.705z"/>
			<path style="fill:#FFF9F2;" d="M182.467,224.917c4.758,7.549,12.307,20.785,10.173,20.785
				C190.507,245.702,185.748,232.958,182.467,224.917z"/>
			<path style="fill:#FFF9F2;" d="M206.908,397.421c4.758,7.548,12.306,20.785,10.173,20.785
				C214.947,418.206,210.189,405.462,206.908,397.421z"/>
			<path style="fill:#FFF9F2;" d="M232.542,265.571c4.759,7.548,12.307,20.785,10.174,20.785
				C240.582,286.356,235.824,273.612,232.542,265.571z"/>
			<path style="fill:#FFF9F2;" d="M182.467,180.05c4.758,7.548,12.307,20.784,10.173,20.784
				C190.507,200.834,185.748,188.09,182.467,180.05z"/>
			<path style="fill:#FFF9F2;" d="M166.859,356.239c4.76,7.547,12.307,20.784,10.174,20.784S170.14,364.28,166.859,356.239z"/>
			<path style="fill:#FFF9F2;" d="M161.586,322.108c4.76,7.548,12.307,20.784,10.174,20.784
				C169.627,342.893,164.868,330.149,161.586,322.108z"/>
			<path style="fill:#FFF9F2;" d="M142.086,161.355c4.758,7.548,12.307,20.784,10.173,20.784
				C150.125,182.139,145.368,169.395,142.086,161.355z"/>
			<path style="fill:#FFF9F2;" d="M150.546,88.725c4.759,7.547,12.307,20.783,10.174,20.783
				C158.586,109.508,153.828,96.765,150.546,88.725z"/>
			<path style="fill:#FFF9F2;" d="M324.718,111.084c4.759,7.548,12.308,20.784,10.174,20.784
				C332.76,131.868,327.999,119.125,324.718,111.084z"/>
			<path style="fill:#FFF9F2;" d="M350.019,209.503c4.759,7.548,12.308,20.784,10.174,20.784
				C358.061,230.287,353.302,217.544,350.019,209.503z"/>
			<path style="fill:#FFF9F2;" d="M271.252,125.145c4.76,7.548,12.308,20.784,10.173,20.784
				C279.293,145.929,274.533,133.186,271.252,125.145z"/>
			<path style="fill:#FFF9F2;" d="M290.14,88.1c4.759,7.548,12.308,20.784,10.174,20.784
				C298.182,108.884,293.421,96.141,290.14,88.1z"/>
			<path style="fill:#FFF9F2;" d="M400.403,329.855c4.759,7.547,12.308,20.784,10.174,20.784
				C408.445,350.64,403.685,337.897,400.403,329.855z"/>
			<path style="fill:#FFF9F2;" d="M400.403,265.826c4.761,7.548,12.308,20.784,10.174,20.784
				C408.445,286.61,403.685,273.868,400.403,265.826z"/>
			<path style="fill:#FFF9F2;" d="M395.131,235.311c4.759,7.547,12.308,20.784,10.174,20.784
				C403.173,256.095,398.412,243.352,395.131,235.311z"/>
			<path style="fill:#FFF9F2;" d="M140.001,324.698c4.759,7.547,12.307,20.784,10.174,20.784
				C148.041,345.482,143.283,332.738,140.001,324.698z"/>
			<path style="fill:#FFF9F2;" d="M55.429,271.948c4.759,7.548,12.308,20.784,10.174,20.784
				C63.47,292.732,58.71,279.989,55.429,271.948z"/>
			<path style="fill:#FFF9F2;" d="M69.702,186.943c4.76,7.548,12.308,20.784,10.174,20.784
				C77.744,207.727,72.983,194.984,69.702,186.943z"/>
			<path style="fill:#FFF9F2;" d="M81.74,290.522c4.758,7.548,12.307,20.784,10.173,20.784
				C89.779,311.307,85.021,298.564,81.74,290.522z"/>
			<path style="fill:#FFF9F2;" d="M290.14,335.09c6.898,10.944,17.842,30.136,14.749,30.136
				C301.796,365.226,294.896,346.748,290.14,335.09z"/>
			<path style="fill:#FFF9F2;" d="M297.784,261.15c6.898,10.943,17.842,30.136,14.749,30.136
				C309.44,291.286,302.541,272.809,297.784,261.15z"/>
			<path style="fill:#FFF9F2;" d="M398.031,162.782c6.9,10.943,17.844,30.136,14.751,30.136
				C409.689,192.918,402.79,174.44,398.031,162.782z"/>
			<path style="fill:#FFF9F2;" d="M362.931,137.178c6.9,10.943,17.845,30.136,14.752,30.136S367.689,148.836,362.931,137.178z"/>
			<path style="fill:#FFF9F2;" d="M360.777,274.485c6.898,10.943,17.842,30.136,14.749,30.136
				C372.434,304.621,365.533,286.144,360.777,274.485z"/>
			<path style="fill:#FFF9F2;" d="M340.958,377.523c6.9,10.943,17.844,30.136,14.751,30.136
				C352.616,407.659,345.717,389.182,340.958,377.523z"/>
			<path style="fill:#FFF9F2;" d="M253.551,393.278c6.9,10.943,17.844,30.136,14.751,30.136
				C265.209,423.414,258.309,404.936,253.551,393.278z"/>
			<path style="fill:#FFF9F2;" d="M345.736,328.884c4.312,6.841,11.152,18.835,9.219,18.835
				C353.023,347.719,348.71,336.171,345.736,328.884z"/>
			<path style="fill:#FFF9F2;" d="M260.387,377.914c4.313,6.841,11.152,18.836,9.219,18.836
				C267.675,396.75,263.361,385.201,260.387,377.914z"/>
		</g>
		<g>
			<defs>
				<path id="SVGID_00000045619016913309161190000017891381404879428230_" d="M226.635,78.023
					c-60.122,0-140.568,12.823-158.448,81.059c-26.642,101.675-42.446,217.941,39.205,265.574
					c28.788,16.795,58.652,11.742,79.604,6.811c51.835-12.196,95.548,4.767,133.656-4.065
					c31.22-7.235,158.045-64.364,107.227-223.016C377.06,45.736,282.539,78.023,226.635,78.023z"/>
			</defs>
			<clipPath id="SVGID_00000090293713073586443120000013110491888434850944_">
				<use xlink:href="#SVGID_00000045619016913309161190000017891381404879428230_"  style="overflow:visible;"/>
			</clipPath>
			<g style="clip-path:url(#SVGID_00000090293713073586443120000013110491888434850944_);">
				<g>
					<path style="fill:#4DB881;" d="M71.706,397.212c2.57-19.139,8.421-34.912,30.287-47.719
						c-19.396,0.983-34.948,6.073-43.492,20.051C61.007,381.418,62.231,389.05,71.706,397.212z"/>
					<path style="fill:#3A8C62;" d="M91.002,354.17c-5.811,1.692-11.462,5.666-15.603,10.015c-2.297,2.46-4.442,4.956-6.539,7.591
						c-1.638,2.431-3.273,4.886-4.971,7.275c0.959-2.703,2.138-5.263,3.52-7.775c1.751-3.186,4.137-5.867,6.563-8.536
						c2.368-2.386,5.155-4.452,8.154-5.973C84.837,355.391,87.915,354.193,91.002,354.17z"/>
				</g>
				<g>
					<path style="fill:#4DB881;" d="M401.519,391.514c-2.571-19.139-8.421-34.912-30.287-47.719
						c19.395,0.983,34.947,6.073,43.491,20.051C412.217,375.72,410.994,383.352,401.519,391.514z"/>
					<path style="fill:#3A8C62;" d="M382.222,348.472c5.81,1.692,11.462,5.666,15.604,10.015c2.297,2.46,4.442,4.956,6.538,7.591
						c1.639,2.431,3.273,4.886,4.971,7.275c-0.958-2.703-2.138-5.263-3.52-7.775c-1.75-3.186-4.137-5.867-6.562-8.536
						c-2.368-2.386-5.155-4.452-8.152-5.973C388.388,349.692,385.309,348.495,382.222,348.472z"/>
				</g>
				<g>
					<path style="fill:#4DB881;" d="M170.57,438.901c-0.052-19.512-11.734-91.759-52.283-95.025
						c17.596-2.595,73.631-2.297,77.111,94.446C180.819,440.473,178.79,445.01,170.57,438.901z"/>
					<path style="fill:#3A8C62;" d="M136.903,348.194c4.456,0.997,8.787,3.444,12.527,5.991c5.108,3.479,9.606,7.777,13.489,12.578
						c8.077,9.988,13.139,21.864,16.548,34.156c3.608,13.004,4.508,26.52,4.534,39.949c-2.025-23.602-5.791-47.886-18.979-68.135
						c-3.704-5.686-8.123-11.042-13.317-15.435C147.348,353.616,142.383,350,136.903,348.194z"/>
				</g>
				<g>
					<path style="fill:#4DB881;" d="M441.6,307.343c-10.417-10.418-69.621-13.467-82.325,32.904
						c14.42-14.419,53.867-24.773,78.26-7.495C441.6,323.604,441.6,317.506,441.6,307.343z"/>
					<path style="fill:#3A8C62;" d="M368.422,327.67c3.487-3.17,7.577-5.838,11.656-8.174c5.324-3.051,10.97-5.503,16.857-7.232
						c11.935-3.504,25.517-3.415,36.525,2.91c2.726,1.567,5.211,3.376,7.609,5.406c-4.294-2.692-8.568-5.149-13.447-6.64
						c-6.045-1.847-12.402-2.439-18.691-1.878c-12.602,1.12-24.752,6.149-35.579,12.51
						C371.682,325.556,370.027,326.581,368.422,327.67z"/>
				</g>
				<g>
					<path style="fill:#4DB881;" d="M70.783,410.084c4.689-13.968,56.343-43.06,88.367-7.195
						c-19.333-6.491-59.265,1.804-73.412,28.135C78.025,424.644,75.31,419.184,70.783,410.084z"/>
					<path style="fill:#3A8C62;" d="M145.359,395.698c-11.275-1.529-23.303-1.29-34.392,1.34
						c-11.897,2.821-23.283,8.978-30.366,19.219c-1.228,1.775-2.323,3.605-3.448,5.444c1.959-4.552,4.409-8.813,7.756-12.496
						c4.078-4.488,9.087-7.931,14.575-10.462c11.388-5.251,24.733-6.251,37.058-4.689
						C139.493,394.429,142.491,394.887,145.359,395.698z"/>
				</g>
				<g>
					<path style="fill:#4DB881;" d="M48.34,336.028c16.262-10.512,52.748-29.823,85.323-6.446
						c-22.816-3.05-66.521,8.385-82.782,32.396C50.881,348.893,48.34,347.557,48.34,336.028z"/>
					<path style="fill:#3A8C62;" d="M49.597,348.34c3.351-3.354,7.239-6.259,11.131-8.946c5.179-3.577,10.719-6.689,16.491-9.198
						c11.277-4.901,24.034-7.845,36.31-5.562c1.933,0.359,3.819,0.834,5.703,1.391c-2.052-0.288-4.085-0.614-6.152-0.78
						c-3.124-0.25-6.248-0.133-9.369,0.057c-6.07,0.368-12.197,1.864-17.948,3.787c-11.634,3.887-22.648,9.832-32.723,16.792
						C51.879,346.683,50.728,347.498,49.597,348.34z"/>
				</g>
				<g>
					<g>
						<path style="fill:#3A8C62;" d="M320.531,362.839c-6.86,3.938-15.754,16.262-19.057,44.974
							c6.86-12.704,31.508-42.688,54.376-36.335C351.785,364.363,335.522,354.199,320.531,362.839z"/>
						<path style="fill:#2E704F;" d="M343.513,361.728c-8.097,2.955-15.718,7.651-22.065,13.465
							c-3.231,2.959-6.113,6.185-8.671,9.745c-2.603,3.627-4.645,7.495-6.729,11.43c0.592-1.852,1.112-3.773,1.884-5.559
							c1.015-2.346,2.186-4.584,3.522-6.758c2.318-3.777,5.187-7.296,8.504-10.247C326.57,367.924,334.685,363.191,343.513,361.728z
							"/>
					</g>
					<g>
						<path style="fill:#4DB881;" d="M320.531,362.839c4.319-4.319,37.605-11.942,47.77-5.845
							c10.163,6.099,29.728,31.254,31.253,50.564c-7.622,10.926-11.689,12.524-19.057,15.282
							C378.719,409.083,350.006,350.388,320.531,362.839z"/>
						<path style="fill:#3A8C62;" d="M347.974,356.74c2.382,0.435,4.729,1.579,6.797,2.804c2.57,1.522,4.925,3.253,7.226,5.154
							c4.754,3.934,8.927,8.833,12.478,13.86c7.17,10.151,12.679,21.168,17.048,32.783c0.528,1.402,1.052,2.805,1.544,4.219
							c-2.316-4.433-4.427-8.966-6.751-13.395c-2.912-5.549-6.033-10.944-9.322-16.276c-3.268-5.294-7.047-10.287-11.089-15.009
							c-3.918-4.577-8.484-8.876-13.631-12.038C350.929,358.017,349.48,357.223,347.974,356.74z"/>
					</g>
				</g>
			</g>
		</g>
	</g>
</g>
</svg>
